# MagicaVoxel @ Ephtracy

# group
o 

# material
mtllib Block.mtl
usemtl palette

# normals
vn -1 0 0
vn 1 0 0
vn 0 0 1
vn 0 0 -1
vn 0 -1 0
vn 0 1 0

# texcoords
vt 0.537109 0.5
vt 0.701172 0.5
vt 0.771484 0.5
vt 0.869141 0.5

# verts
v -0.5 0 0.5
v -0.5 0 -0.5
v -0.5 0.3 0.5
v -0.5 0.3 -0.5
v -0.5 0.5 0.5
v -0.5 0.5 -0.5
v -0.5 0.7 0.5
v -0.5 0.7 0.4
v -0.5 0.7 -0.1
v -0.5 0.7 -0.3
v -0.5 0.8 0.4
v -0.5 0.8 -0.1
v -0.5 0.8 -0.3
v -0.5 0.8 -0.5
v -0.5 1 0.5
v -0.5 1 -0.5
v 0.5 0 0.5
v 0.5 0 -0.5
v 0.5 0.3 0.5
v 0.5 0.3 -0.5
v 0.5 0.5 0.5
v 0.5 0.5 -0.5
v 0.5 0.7 0.5
v 0.5 0.7 0.4
v 0.5 0.7 0.3
v 0.5 0.7 -0.1
v 0.5 0.7 -0.2
v 0.5 0.7 -0.3
v 0.5 0.7 -0.4
v 0.5 0.7 -0.5
v 0.5 0.8 0.4
v 0.5 0.8 0.3
v 0.5 0.8 -0.1
v 0.5 0.8 -0.2
v 0.5 0.8 -0.3
v 0.5 0.8 -0.4
v 0.5 1 0.5
v 0.5 1 -0.5
v -0.5 0 0.5
v -0.5 0.3 0.5
v -0.5 0.5 0.5
v -0.5 0.7 0.5
v -0.5 1 0.5
v -0.4 0.7 0.5
v -0.4 0.8 0.5
v -0.2 0.7 0.5
v -0.2 0.8 0.5
v 0 0.7 0.5
v 0 0.8 0.5
v 0.3 0.7 0.5
v 0.3 0.8 0.5
v 0.5 0 0.5
v 0.5 0.3 0.5
v 0.5 0.5 0.5
v 0.5 0.7 0.5
v 0.5 1 0.5
v -0.5 0 -0.5
v -0.5 0.3 -0.5
v -0.5 0.5 -0.5
v -0.5 0.8 -0.5
v -0.5 1 -0.5
v -0.3 0.7 -0.5
v -0.3 0.8 -0.5
v 0.1 0.7 -0.5
v 0.1 0.8 -0.5
v 0.4 0.7 -0.5
v 0.4 0.8 -0.5
v 0.5 0 -0.5
v 0.5 0.3 -0.5
v 0.5 0.5 -0.5
v 0.5 0.7 -0.5
v 0.5 1 -0.5
v -0.5 0 0.5
v 0.5 0 0.5
v -0.5 0 -0.5
v 0.5 0 -0.5
v -0.5 1 0.5
v 0.5 1 0.5
v -0.5 1 -0.5
v 0.5 1 -0.5

# faces
f 3/2/1 2/2/1 1/2/1
f 4/2/1 2/2/1 3/2/1
f 5/4/1 4/4/1 3/4/1
f 6/4/1 4/4/1 5/4/1
f 7/1/1 6/1/1 5/1/1
f 8/1/1 6/1/1 7/1/1
f 9/1/1 6/1/1 8/1/1
f 10/1/1 6/1/1 9/1/1
f 11/3/1 8/3/1 7/3/1
f 11/1/1 9/1/1 8/1/1
f 12/3/1 10/3/1 9/3/1
f 12/1/1 9/1/1 11/1/1
f 13/1/1 6/1/1 10/1/1
f 13/3/1 10/3/1 12/3/1
f 14/1/1 6/1/1 13/1/1
f 15/3/1 12/3/1 11/3/1
f 15/3/1 11/3/1 7/3/1
f 15/3/1 14/3/1 13/3/1
f 15/3/1 13/3/1 12/3/1
f 16/3/1 14/3/1 15/3/1
f 17/2/2 18/2/2 19/2/2
f 19/2/2 18/2/2 20/2/2
f 19/4/2 20/4/2 21/4/2
f 21/4/2 20/4/2 22/4/2
f 21/1/2 22/1/2 23/1/2
f 23/1/2 22/1/2 24/1/2
f 24/1/2 22/1/2 25/1/2
f 25/1/2 22/1/2 26/1/2
f 26/1/2 22/1/2 27/1/2
f 27/1/2 22/1/2 28/1/2
f 28/1/2 22/1/2 29/1/2
f 29/1/2 22/1/2 30/1/2
f 23/3/2 24/3/2 31/3/2
f 24/1/2 25/1/2 31/1/2
f 25/3/2 26/3/2 32/3/2
f 31/1/2 25/1/2 32/1/2
f 26/1/2 27/1/2 33/1/2
f 32/3/2 26/3/2 33/3/2
f 27/3/2 28/3/2 34/3/2
f 33/1/2 27/1/2 34/1/2
f 28/1/2 29/1/2 35/1/2
f 34/3/2 28/3/2 35/3/2
f 29/3/2 30/3/2 36/3/2
f 35/1/2 29/1/2 36/1/2
f 34/3/2 35/3/2 37/3/2
f 23/3/2 31/3/2 37/3/2
f 35/3/2 36/3/2 37/3/2
f 33/3/2 34/3/2 37/3/2
f 32/3/2 33/3/2 37/3/2
f 31/3/2 32/3/2 37/3/2
f 36/3/2 30/3/2 38/3/2
f 37/3/2 36/3/2 38/3/2
f 44/1/3 42/1/3 41/1/3
f 44/3/3 43/3/3 42/3/3
f 45/3/3 43/3/3 44/3/3
f 46/1/3 44/1/3 41/1/3
f 46/1/3 45/1/3 44/1/3
f 47/3/3 43/3/3 45/3/3
f 47/1/3 45/1/3 46/1/3
f 48/1/3 46/1/3 41/1/3
f 48/3/3 47/3/3 46/3/3
f 49/3/3 43/3/3 47/3/3
f 49/3/3 47/3/3 48/3/3
f 50/1/3 48/1/3 41/1/3
f 50/1/3 49/1/3 48/1/3
f 51/3/3 43/3/3 49/3/3
f 51/1/3 49/1/3 50/1/3
f 52/2/3 40/2/3 39/2/3
f 53/4/3 41/4/3 40/4/3
f 53/2/3 40/2/3 52/2/3
f 54/1/3 50/1/3 41/1/3
f 54/4/3 41/4/3 53/4/3
f 55/3/3 51/3/3 50/3/3
f 55/1/3 50/1/3 54/1/3
f 56/3/3 43/3/3 51/3/3
f 56/3/3 51/3/3 55/3/3
f 59/1/4 60/1/4 62/1/4
f 60/3/4 61/3/4 63/3/4
f 62/1/4 60/1/4 63/1/4
f 59/1/4 62/1/4 64/1/4
f 62/3/4 63/3/4 64/3/4
f 63/3/4 61/3/4 65/3/4
f 64/3/4 63/3/4 65/3/4
f 59/1/4 64/1/4 66/1/4
f 64/1/4 65/1/4 66/1/4
f 65/3/4 61/3/4 67/3/4
f 66/1/4 65/1/4 67/1/4
f 57/2/4 58/2/4 68/2/4
f 58/4/4 59/4/4 69/4/4
f 68/2/4 58/2/4 69/2/4
f 59/1/4 66/1/4 70/1/4
f 69/4/4 59/4/4 70/4/4
f 66/3/4 67/3/4 71/3/4
f 70/1/4 66/1/4 71/1/4
f 67/3/4 61/3/4 72/3/4
f 71/3/4 67/3/4 72/3/4
f 75/2/5 74/2/5 73/2/5
f 76/2/5 74/2/5 75/2/5
f 77/3/6 78/3/6 79/3/6
f 79/3/6 78/3/6 80/3/6
